<?xml version="1.0" encoding="UTF-8"?>
<svg id="Layer_1" data-name="Layer 1" xmlns="http://www.w3.org/2000/svg" viewBox="0 0 698.87 144">
  <defs>
    <style>
      .cls-1 {
        fill: #fff;
      }

      .cls-2 {
        fill: #d82d27;
      }
    </style>
  </defs>
  <g>
    <path class="cls-1" d="M493.7,141.26h-14.33l-26.28-28.63h-12.59v28.63h-11.01v-72.18h21.36c4.75,0,8.72.23,11.93.68,3.21.45,6.26,1.5,9.15,3.16,2.89,1.62,5.18,3.7,6.87,6.26,1.69,2.56,2.53,5.73,2.53,9.51,0,5.31-1.53,9.74-4.61,13.3-3.07,3.56-7.25,6.2-12.54,7.91l29.52,31.35ZM469.82,89.47c0-2.1-.43-3.97-1.28-5.61-.85-1.63-2.17-2.97-3.95-4-1.56-.91-3.37-1.55-5.45-1.92-2.07-.37-4.65-.56-7.73-.56h-10.9v27.28h9.68c3.15,0,5.99-.24,8.51-.72,2.52-.49,4.67-1.49,6.45-3.01,1.59-1.36,2.77-2.98,3.53-4.85.76-1.88,1.15-4.08,1.15-6.6Z"/>
    <path class="cls-1" d="M533.26,135.51c-.85.55-2,1.32-3.43,2.3-1.43.99-2.82,1.77-4.16,2.35-1.86.84-3.65,1.48-5.38,1.93-1.73.45-4.15.68-7.28.68-2.56,0-5-.42-7.3-1.26-2.3-.84-4.33-2.02-6.08-3.53-1.67-1.49-3.01-3.32-4.01-5.5-1-2.17-1.5-4.48-1.5-6.9,0-3.74.91-6.93,2.73-9.56,1.83-2.63,4.7-4.72,8.64-6.27,3.49-1.39,7.62-2.35,12.37-2.89,4.76-.53,9.89-.93,15.39-1.18v-1.76c0-2.14-.37-3.87-1.11-5.19-.75-1.32-1.79-2.34-3.12-3.05-1.34-.75-2.97-1.24-4.9-1.49-1.93-.24-3.92-.37-5.97-.37-2.41,0-5.26.32-8.53.96-3.27.64-6.54,1.56-9.81,2.77h-.61v-9.22c1.94-.48,4.71-1.02,8.32-1.59,3.61-.58,7.18-.87,10.72-.87,4.28,0,7.89.29,10.83.87,2.94.58,5.58,1.63,7.93,3.15,2.27,1.49,3.97,3.41,5.08,5.77,1.12,2.36,1.68,5.23,1.68,8.62v37h-10.5v-5.74ZM533.26,127.95v-14.81c-2.49.19-5.64.45-9.44.79-3.81.34-6.88.81-9.22,1.41-2.78.73-5.09,1.85-6.91,3.37-1.82,1.51-2.73,3.63-2.73,6.34,0,3.06,1,5.37,3.01,6.93,2.01,1.56,4.94,2.34,8.8,2.34,3.3,0,6.29-.61,8.97-1.84,2.68-1.23,5.18-2.73,7.52-4.52Z"/>
    <path class="cls-1" d="M606.42,141.26h-10.51v-5.5c-1.64,1.2-3.05,2.19-4.24,2.96-1.19.78-2.59,1.49-4.19,2.13-1.49.62-3.04,1.09-4.64,1.43-1.6.34-3.46.51-5.59.51-3.39,0-6.53-.61-9.42-1.84-2.88-1.23-5.34-3.03-7.34-5.39-2.05-2.39-3.63-5.35-4.75-8.86-1.12-3.51-1.68-7.55-1.68-12.12s.71-8.88,2.12-12.36c1.42-3.48,3.37-6.52,5.86-9.11,2.27-2.36,5.02-4.21,8.24-5.56,3.22-1.34,6.6-2.02,10.14-2.02,3.13,0,5.85.3,8.16.9,2.31.6,4.75,1.53,7.32,2.79v-23.34h10.51v75.39ZM595.91,128.09v-31.33c-2.61-1.05-4.94-1.77-7.01-2.18-2.07-.4-4.31-.6-6.73-.6-5.4,0-9.63,1.76-12.68,5.26-3.05,3.51-4.58,8.58-4.58,15.21s1.17,11.24,3.52,14.62c2.34,3.38,6.11,5.07,11.29,5.07,2.76,0,5.53-.54,8.32-1.63,2.8-1.09,5.42-2.56,7.88-4.42Z"/>
    <path class="cls-1" d="M632.95,78.06h-11.86v-9.49h11.86v9.49ZM632.27,141.26h-10.5v-54.22h10.5v54.22Z"/>
    <path class="cls-1" d="M698.87,114.18c0,9.13-2.53,16.18-7.58,21.15-5.05,4.97-11.76,7.45-20.16,7.45s-15.45-2.56-20.41-7.7c-4.95-5.13-7.43-12.1-7.43-20.91s2.55-16.11,7.66-21.13c5.1-5.02,11.83-7.53,20.18-7.53s15.11,2.5,20.16,7.51c5.05,5,7.58,12.05,7.58,21.15ZM688.02,114.18c0-7-1.46-12.2-4.39-15.59-2.92-3.4-7.09-5.1-12.5-5.1s-9.64,1.71-12.58,5.1c-2.95,3.4-4.42,8.6-4.42,15.59s1.47,11.9,4.42,15.4c2.94,3.5,7.14,5.24,12.58,5.24s9.53-1.72,12.47-5.15c2.94-3.43,4.41-8.6,4.41-15.5Z"/>
  </g>
  <path class="cls-1" d="M17.86,2.84s25.12,79.37,37.85,119.36c11.08-40.58,26.36-79.52,39.54-119.36h18.72l-49.57,138.83h-19.47L0,2.84h17.86Z"/>
  <path class="cls-1" d="M315.66,134.59c-.8,2.36-1.59,4.72-2.37,7.09h-18.72l12.83-35.94,6.01,16.15-4.18,1.97-4.32,2.04,3.71,3,7.04,5.69Z"/>
  <path class="cls-1" d="M396.71,105.13l-4.39.93-12.11,2.57c-.49-1.55-.99-3.14-1.5-4.76v-.03c-.12-.33-.22-.67-.33-1.01-1.4-4.4-2.86-9.01-4.36-13.74-.34-1.09-.69-2.19-1.04-3.29-7.03-22.18-14.72-46.42-20.15-63.48-5.89,21.55-12.96,42.65-20.27,63.66-.4,1.17-.81,2.34-1.22,3.51-1.95,5.58-3.91,11.16-5.87,16.74l-.96,2.27-11.5-2.43-.47-.1-4.81-1.16L344.14,2.85h19.48l33.09,102.28Z"/>
  <path class="cls-1" d="M408.54,141.68h-17.86s-.73-2.29-2-6.3l8.02-6.48,3.73-3.02-4.34-2.03-4.21-1.97,3.91-11.95,1.25-3.81,11.5,35.56Z"/>
  <path class="cls-1" d="M320.95,0h-117.5c-6.49.05-9.94,1.15-12.81,1.76-4.98,1.39-9.76,3.27-14.07,6.18-13.63,9.14-17.67,25.31-14.38,40.29,9.74,31.6,48.52,22.17,61.1,50.32,2.55,9.73-.6,18.87-8.68,25.16-10.78,7.04-25.01,5.84-37.44,2.85-17.52-5.54-32.82-24.55-32.95-41.78l-.12-81.92h-17.11l-.04,82.18c.4,18.58,10.25,39.11,31.65,50.81,18.87,10.63,48.98,11.38,67.55-.75,10.93-7.48,15.13-19.17,15.72-31.6,1.65-29.06-30.4-37.9-50.32-47.48-7.94-4.79-14.68-12.73-12.88-22.91,1.35-8.09,8.99-14.83,16.47-17.22,20.97-2.4,65.45-1.5,65.45-1.5l.29,127.3h18.47l-.04-127.3h41.64V0Z"/>
  <path class="cls-2" d="M394.82,126.57c-4.28,3.46-14.32,11.58-18.69,15.11h-46.94c-4.12-3.33-14.7-11.89-18.68-15.11l6.57-3.1-4.69-14.47c1.97.42,12.19,2.59,13.92,2.95l3.08-7.27,10.04,10.73-4.81-24.79,9.74,5.61,8.28-16.31,8.32,16.31,9.71-5.62-4.82,24.85,10.05-10.79,3.08,7.29c1.16-.25,12.49-2.65,13.96-2.96l-4.73,14.47,6.61,3.1Z"/>
</svg>